inDegrees=no
num_controls=7
num_derivatives=13
num_iterations=98
num_multipliers=7
num_parameters=0
num_slacks=7
num_states=26
objective=4.792223
objective_accelerations=0.472595
objective_balance=0.014559
objective_effort=0.136482
objective_height=4.117067
objective_ligament=0.051519
solver_duration=1084.536077
status=Solve_Succeeded
success=true
DataType=double
version=3
OpenSimVersion=4.4-2022-07-23-0e9fedc
endheader
time	/jointset/ground_pelvis/pelvis_tilt/value	/jointset/ground_pelvis/pelvis_tx/value	/jointset/ground_pelvis/pelvis_ty/value	/jointset/hip_l/hip_flexion_l/value	/jointset/hip_l/hip_adduction_l/value	/jointset/hip_l/hip_rotation_l/value	/jointset/back/lumbar_extension/value	/jointset/patellofemoral_l/patellar_flexion_l/value	/jointset/knee_l/knee_flexion_l/value	/jointset/knee_l/knee_adduction_l/value	/jointset/knee_l/knee_rotation_l/value	/jointset/ankle_l/ankle_angle_l/value	/jointset/subtalar_l/subtalar_angle_l/value	/jointset/ground_pelvis/pelvis_tilt/speed	/jointset/ground_pelvis/pelvis_tx/speed	/jointset/ground_pelvis/pelvis_ty/speed	/jointset/hip_l/hip_flexion_l/speed	/jointset/hip_l/hip_adduction_l/speed	/jointset/hip_l/hip_rotation_l/speed	/jointset/back/lumbar_extension/speed	/jointset/patellofemoral_l/patellar_flexion_l/speed	/jointset/knee_l/knee_flexion_l/speed	/jointset/knee_l/knee_adduction_l/speed	/jointset/knee_l/knee_rotation_l/speed	/jointset/ankle_l/ankle_angle_l/speed	/jointset/subtalar_l/subtalar_angle_l/speed	/forceset/tau_hip_flexion_l	/forceset/tau_hip_adduction_l	/forceset/tau_hip_rotation_l	/forceset/tau_knee_flexion_l	/forceset/tau_ankle_angle_l	/forceset/tau_subtalar_angle_l	/forceset/tau_lumbar_extension	lambda_cid13_p0	lambda_cid13_p1	lambda_cid13_p2	lambda_cid13_p3	lambda_cid13_p4	lambda_cid13_p5	lambda_cid14_p0	/jointset/ground_pelvis/pelvis_tilt/accel	/jointset/ground_pelvis/pelvis_tx/accel	/jointset/ground_pelvis/pelvis_ty/accel	/jointset/hip_l/hip_flexion_l/accel	/jointset/hip_l/hip_adduction_l/accel	/jointset/hip_l/hip_rotation_l/accel	/jointset/back/lumbar_extension/accel	/jointset/patellofemoral_l/patellar_flexion_l/accel	/jointset/knee_l/knee_flexion_l/accel	/jointset/knee_l/knee_adduction_l/accel	/jointset/knee_l/knee_rotation_l/accel	/jointset/ankle_l/ankle_angle_l/accel	/jointset/subtalar_l/subtalar_angle_l/accel	gamma_cid13_p0	gamma_cid13_p1	gamma_cid13_p2	gamma_cid13_p3	gamma_cid13_p4	gamma_cid13_p5	gamma_cid14_p0
1.5	-0.2639775758467203	0.0858235843290948	0.8239011748778984	0.7925152095529157	-0.3694598888231989	-0.07715302696808973	-0.3065969311704506	0.690652469368547	0.6906524693686136	-0.07924966148680228	-0.1717655824899338	0.2680961475525864	0.1379279176828981	0.2736858561698141	0.2115446304754455	0.3402586668462556	-1.739002703497605	0.02171015684486113	-0.5582385177660311	0.6181003504949901	-1.863542762853708	-1.863542762853891	-0.2232729096092771	0.03968215619197461	-0.548419543825863	-0.1761645327789827	-0.09922327171407348	0.02714671264359947	0.01114954524564035	-0.1294185519538423	-0.05081516394253899	0.008738238037487406	0.1050156085527752	-40.24767377378157	0.6628347107308106	2.570833011424988	-0.2287206399391017	-437.0576143855296	-63.93594637268068	-15.60175456022883	0.2702560861868949	0.3409415412509298	-0.5670392802370355	-0.8807859649282138	0.2700370394946235	-0.2353669364284718	1.168067021698646	-0.9234551723667208	-0.9234551723667642	-0.2641490114226043	0.395389975626239	-0.3618353155413435	0.3801800975341448	1.72831064224637e-07	2.941674724591804e-06	-2.196003941173079e-06	2.929125380250733e-07	5.366846167520314e-07	2.551414919738851e-06	4.798941603167871e-07
1.51	-0.2612272302163055	0.08795578301907914	0.8272747331680136	0.7750825101428011	-0.3692308238964541	-0.08274760503561618	-0.3003589595233835	0.6719727455663099	0.671972745566364	-0.0814980855871475	-0.1713516883168588	0.2625939806152378	0.1361832377627058	0.2763358119322615	0.2148588296676253	0.3343824434086545	-1.747288882783258	0.0241039749599196	-0.5605989554135877	0.6293928666141876	-1.872144631142025	-1.87214463114219	-0.2264027452117805	0.04311648767467184	-0.5519367698582227	-0.1727510264807606	-0.09606180212023256	0.02592839713246586	0.01171904576814517	-0.1267721670348001	-0.0504048440248237	0.007468841514763521	0.10220167143483	-40.09715022538431	1.103376057902581	2.597005346752657	-0.06264143618003928	-434.9391688982398	-63.47210458356981	-16.33699011776644	0.2552687294727486	0.32128699899604	-0.6083999812297283	-0.7652630234470039	0.2242206932139126	-0.2242039275606836	1.094677061359201	-0.7900451765748032	-0.790045176572253	-0.3356468924898087	0.3201105264685948	-0.3349934360914843	0.3247350075452455	1.541373822458263e-07	3.136518387868509e-06	-2.102627270363802e-06	3.291671147690972e-07	4.99469141328724e-07	2.603134110157596e-06	4.848701455290323e-07
1.52	-0.2584518043466138	0.09012004927914398	0.8305874320026126	0.7575744031172275	-0.368977787489403	-0.08836335182936665	-0.2940110960842561	0.6532147045773115	0.6532147045773105	-0.08377745725519226	-0.1709029196704992	0.2570589759797651	0.1344732527278128	0.278701904022649	0.217958144491549	0.3280867757428975	-1.754084226591441	0.02650445290308644	-0.5624722630067892	0.6400787089065425	-1.879206200210772	-1.87920620021092	-0.229462423127305	0.04665705083245075	-0.5549870834509132	-0.1692255557193831	-0.09290033252640444	0.02471008162122935	0.01228854629011432	-0.1241257821157479	-0.04999452410713464	0.006199444991904753	0.09938773431690276	-39.94696710423081	1.537617001144946	2.631448170179008	0.07878100172904087	-432.8579542898721	-63.08561993295798	-17.06228176755997	0.2134833517749468	0.2979646675997494	-0.6509281258682205	-0.5826188694341288	0.2713690051163752	-0.1379409255573326	1.046732256330209	-0.6153953284528977	-0.6153953284528721	-0.2501174740267579	0.4166363106427429	-0.2684528276074602	0.4025729901653109	1.352881528036081e-07	3.32061355033388e-06	-2.000312207003755e-06	3.617099898072706e-07	4.66711283706287e-07	2.641785348212771e-06	4.874759571261019e-07
1.53	-0.2556542033944512	0.09231419230193191	0.8338351372911499	0.7400059151348712	-0.3687006447880788	-0.09399610444929533	-0.2875594685375814	0.6343938707858556	0.6343938707859768	-0.08608653702440155	-0.1704186757841504	0.251495860123343	0.1327992139739832	0.2807659758444701	0.2208295828414611	0.3213907892416629	-1.759354208737147	0.02892486737725403	-0.5640047494620974	0.6501358369037044	-1.884695709324649	-1.884695709324839	-0.2323341233194742	0.05020470693050302	-0.5575564436449121	-0.165562972802536	-0.08970113120975733	0.02322868472218505	0.01282636811316782	-0.1215852637072452	-0.04956768631552411	0.004909806044393209	0.09654390706995082	-39.80173757954508	1.979813384673392	2.666566812624822	0.2551227593670798	-430.9163258159763	-62.74371172316052	-17.77388461049461	0.1950415342230515	0.2756829590370428	-0.6883730830416916	-0.4602920150968739	0.2274032962711204	-0.1494292340167678	0.9685585426835583	-0.4760989119439114	-0.4760989119502142	-0.3023444805192526	0.3254998023310106	-0.2391119718929198	0.3506383629004231	1.162736541815195e-07	3.49328843068721e-06	-1.888500101558514e-06	3.903091817829778e-07	4.386896449972748e-07	2.666551886881653e-06	4.875634592570475e-07
